HIERARCHY
ROOT Hips
{
	OFFSET 0.00000 0.00000 0.00000
	CHANNELS 6 Xposition Yposition Zposition Zrotation Yrotation Xrotation 
	JOINT LHipJoint
	{
		OFFSET 0 0 0
		CHANNELS 3 Zrotation Yrotation Xrotation
		JOINT LeftHip
		{
			OFFSET 1.75344 -1.53157 0.77399
			CHANNELS 3 Zrotation Yrotation Xrotation
			JOINT LeftKnee
			{
				OFFSET 2.25415 -6.19323 0.00000
				CHANNELS 3 Zrotation Yrotation Xrotation
				JOINT LeftAnkle
				{
					OFFSET 2.30342 -6.32861 0.00000
					CHANNELS 3 Zrotation Yrotation Xrotation
					JOINT LeftToe
					{
						OFFSET 0.10958 -0.30108 1.49206
						CHANNELS 3 Zrotation Yrotation Xrotation
						End Site
						{
							OFFSET 0.00000 -0.00000 0.77783
						}
					}
				}
			}
		}
	}
	JOINT RHipJoint
	{
		OFFSET 0 0 0
		CHANNELS 3 Zrotation Yrotation Xrotation
		JOINT RightHip
		{
			OFFSET -1.81912 -1.53156 0.77399
			CHANNELS 3 Zrotation Yrotation Xrotation
			JOINT RightKnee
			{
				OFFSET -2.22882 -6.12365 0.00000
				CHANNELS 3 Zrotation Yrotation Xrotation
				JOINT RightAnkle
				{
					OFFSET -2.21943 -6.09785 0.00000
					CHANNELS 3 Zrotation Yrotation Xrotation
					JOINT RightToe
					{
						OFFSET -0.18931 -0.52012 1.59379
						CHANNELS 3 Zrotation Yrotation Xrotation
						End Site
						{
							OFFSET -0.00000 -0.00000 0.84686
						}
					}
				}
			}
		}
	}
	JOINT lowerback
	{
		OFFSET 0 0 0
		CHANNELS 3 Zrotation Yrotation Xrotation
		JOINT Chest
		{
			OFFSET -0.00200 1.66634 -0.14248
			CHANNELS 3 Zrotation Yrotation Xrotation
			JOINT Chest2
			{
				OFFSET -0.00875 1.64542 0.09514
				CHANNELS 3 Zrotation Yrotation Xrotation
				JOINT lowerneck
				{
					OFFSET 0 0 0
					CHANNELS 3 Zrotation Yrotation Xrotation
					JOINT Neck
					{
						OFFSET 0.02257 1.59605 0.00839
						CHANNELS 3 Zrotation Yrotation Xrotation
						JOINT Head
						{
							OFFSET -0.10214 1.57530 -0.23335
							CHANNELS 3 Zrotation Yrotation Xrotation
							End Site
							{
								OFFSET -0.03588 1.60717 -0.08062
							}
						}
					}
				}
				JOINT LeftCollar
				{
					OFFSET 0 0 0
					CHANNELS 3 Zrotation Yrotation Xrotation
					JOINT LeftShoulder
					{
						OFFSET 2.54983 1.10186 0.40078
CHANNELS 3 Zrotation Xrotation Yrotation
						JOINT LeftElbow
						{
OFFSET 0 -4.288400 0.000000
CHANNELS 3 Zrotation Xrotation Yrotation
							JOINT LeftWrist
							{
OFFSET 0 -3.065520 -0.000000
CHANNELS 3 Zrotation Xrotation Yrotation
								JOINT lhand
								{
									OFFSET 0 0 0
CHANNELS 3 Zrotation Xrotation Yrotation
									JOINT LFingers
									{
OFFSET 0 -0.753040 0.000000
CHANNELS 3 Zrotation Xrotation Yrotation
										End Site
										{
OFFSET 0 -0.607120 0.000000
										}
									}
								}
								JOINT LThumb
								{
OFFSET 0 0.000000 0.000000
CHANNELS 3 Zrotation Xrotation Yrotation
									End Site
									{
OFFSET 0 -0.616390 0.616390
									}
								}
							}
						}
					}
				}
				JOINT RightCollar
				{
					OFFSET 0 0 0
					CHANNELS 3 Zrotation Yrotation Xrotation
					JOINT RightShoulder
					{
						OFFSET -2.60909 1.35448 0.21802
CHANNELS 3 Zrotation Xrotation Yrotation
						JOINT RightElbow
						{
OFFSET 0 -4.521720 -0.000000
CHANNELS 3 Zrotation Xrotation Yrotation
							JOINT RightWrist
							{
OFFSET 0 -2.891400 0.000000
CHANNELS 3 Zrotation Xrotation Yrotation
								JOINT rhand
								{
									OFFSET 0 0 0
CHANNELS 3 Zrotation Xrotation Yrotation
									JOINT RFingers
									{
OFFSET 0 -0.680540 0.000000
CHANNELS 3 Zrotation Xrotation Yrotation
										End Site
										{
OFFSET 0 -0.548670 0.000000
										}
									}
								}
								JOINT RThumb
								{
OFFSET 0 0.000000 0.000000
CHANNELS 3 Zrotation Xrotation Yrotation
									End Site
									{
OFFSET 0 -0.557050 0.557050
									}
								}
							}
						}
					}
				}
			}
		}
	}
}
MOTION
Frames: 7
Frame Time: 0.008333333333333333
8.861500 15.496500 22.803100 -179.302000 7.115800 177.559000 0.000000 0.000000 0.000000 -26.017700 -18.488900 4.733300 1.327900 7.297500 20.599800 0.645300 14.495900 -26.467300 3.018700 -10.725200 -31.358600 0.000000 0.000000 0.000000 27.245200 15.650600 7.196500 -0.741500 -5.500700 15.342400 0.992800 -21.135200 -20.955400 -0.214700 2.982900 -8.231200 1.597800 1.018900 7.385600 0.302000 1.598600 -3.528900 -0.806000 0.725000 -7.828600 -5.373100 -1.130300 -6.930100 4.659200 -1.277100 11.256900 2.247500 -0.502800 4.570900 0.000000 -0.000000 0.000000 3.442400 12.362100 -37.874000 18.954100 -29.361600 5.008300 4.815900 9.691100 18.582400 0.000000 0.000000 0.000000 -7.125000 0.000000 0.000000 -15.151900 11.811100 -12.173900 0.000000 -0.000000 0.000000 -4.055300 10.609800 46.219200 -19.177000 -29.638100 -5.118100 0.212300 17.439200 54.688600 0.000000 0.000000 0.000000 7.125000 0.000000 -0.000000 77.648100 71.699600 -58.211900
8.860250 15.510912 22.812264 -179.315329 6.692191 178.158800 0.000000 0.000000 0.000000 -25.869333 -19.045381 4.173654 1.314488 7.262012 20.494002 0.703697 14.032138 -26.433645 2.714218 -10.213787 -29.675246 0.000000 0.000000 0.000000 27.039435 15.839454 6.593535 -0.736502 -5.482539 15.290084 0.983386 -21.163857 -21.132757 -0.140391 2.400011 -6.613240 1.585304 0.883612 7.033384 0.294586 1.424242 -3.763238 -0.778842 0.644027 -7.879833 -5.435246 -1.151043 -6.837298 4.689190 -1.308340 11.050719 2.263911 -0.522960 4.494426 0.000000 0.000000 0.000000 3.406579 12.439241 -38.057022 18.975759 -29.388508 5.018963 4.823731 9.172856 22.610555 0.000000 0.000000 0.000000 -7.125000 0.000000 0.000000 -15.052600 7.916567 -13.308021 0.000000 0.000000 0.000000 -4.204750 10.805901 46.507354 -19.292128 -29.779969 -5.175164 0.462800 17.104645 54.520823 0.000000 0.000000 0.000000 7.125000 0.000000 0.000000 77.264312 71.574975 -57.691157
8.858335 15.511602 22.810636 -179.308008 6.690031 178.180416 0.000000 0.000000 0.000000 -25.900482 -19.143644 4.206312 1.313265 7.258697 20.484057 0.724592 13.989558 -26.549997 2.633616 -10.076929 -29.226127 0.000000 0.000000 0.000000 27.029041 15.851655 6.616180 -0.730704 -5.461581 15.229775 0.976904 -21.136628 -21.150715 -0.126832 2.295723 -6.323638 1.606180 0.875617 7.024615 0.298429 1.417543 -3.792681 -0.785790 0.639923 -7.906286 -5.472812 -1.144609 -6.727576 4.738231 -1.306274 10.911016 2.284719 -0.523070 4.433605 0.000000 0.000000 0.000000 3.369025 12.528771 -38.097963 18.975437 -29.388105 5.018769 4.707065 8.747735 28.320038 0.000000 0.000000 0.000000 -7.125000 0.000000 0.000000 -15.142875 2.416376 -15.010001 0.000000 0.000000 0.000000 -4.314034 10.978555 46.765466 -19.406990 -29.921106 -5.232362 0.689386 16.781880 54.472412 0.000000 0.000000 0.000000 7.125000 0.000000 0.000000 77.222571 71.485121 -57.541904
8.859646 15.512447 22.817436 -179.283533 6.587740 178.163945 0.000000 0.000000 0.000000 -25.838754 -19.117682 4.179217 1.310656 7.251765 20.463394 0.724907 13.892854 -26.452816 2.676911 -10.152195 -29.471446 0.000000 0.000000 0.000000 27.074051 15.823226 6.633841 -0.728749 -5.454348 15.209093 0.983385 -21.199218 -21.210186 -0.129746 2.322017 -6.396457 1.578915 0.828794 7.174901 0.317323 1.357474 -3.830123 -0.745528 0.611208 -8.036745 -5.500924 -1.117187 -6.645112 4.793144 -1.275944 10.810486 2.307626 -0.507822 4.387838 0.000000 0.000000 0.000000 3.324898 12.613321 -38.088070 18.970554 -29.382055 5.016402 4.620995 8.423822 34.328711 0.000000 0.000000 0.000000 -7.125000 0.000000 0.000000 -15.373706 -3.360945 -16.829843 0.000000 0.000000 0.000000 -4.330389 11.012206 46.939477 -19.434681 -29.955138 -5.246115 0.713957 16.671520 54.516264 0.000000 0.000000 0.000000 7.125000 0.000000 0.000000 77.360998 71.486393 -57.676787
8.860903 15.515064 22.824306 -179.265993 6.477320 178.205638 0.000000 0.000000 0.000000 -25.762745 -19.126506 4.097007 1.306503 7.240774 20.430721 0.719803 13.818672 -26.336788 2.725914 -10.237625 -29.749681 0.000000 0.000000 0.000000 27.094531 15.816603 6.564683 -0.730097 -5.459155 15.223034 0.988645 -21.256142 -21.272122 -0.135488 2.372332 -6.535820 1.547308 0.777781 7.237458 0.335859 1.289844 -3.859690 -0.700461 0.579855 -8.107773 -5.505869 -1.086761 -6.621821 4.805371 -1.237474 10.748735 2.314059 -0.489550 4.363106 0.000000 0.000000 0.000000 3.266166 12.658907 -38.059123 18.959595 -29.368468 5.011080 4.227229 8.519997 37.870107 0.000000 0.000000 0.000000 -7.125000 0.000000 0.000000 -15.737073 -6.721775 -18.131439 0.000000 0.000000 0.000000 -4.306069 10.928369 47.070641 -19.389324 -29.899511 -5.223478 0.488740 16.800195 54.537966 0.000000 0.000000 0.000000 7.125000 0.000000 0.000000 77.324661 71.569934 -57.743140
8.856340 15.514731 22.812686 -179.278594 6.706311 178.157881 0.000000 0.000000 0.000000 -25.893198 -19.194554 4.288572 1.304008 7.234120 20.411010 0.717076 14.072925 -26.580169 2.683055 -10.162210 -29.504721 0.000000 0.000000 0.000000 27.062514 15.825015 6.610449 -0.732545 -5.468247 15.249143 0.966857 -21.106761 -21.209218 -0.150351 2.494913 -6.875656 1.612098 0.840632 7.034161 0.330434 1.372669 -3.771739 -0.748406 0.618915 -7.891033 -5.472154 -1.073225 -6.657315 4.744652 -1.216288 10.727024 2.290649 -0.481864 4.360807 0.000000 0.000000 0.000000 3.192219 12.653165 -38.014870 18.934734 -29.337550 4.998883 3.362125 9.127677 37.840925 0.000000 0.000000 0.000000 -7.125000 0.000000 0.000000 -16.179509 -6.597528 -18.651202 0.000000 0.000000 0.000000 -4.325407 10.847410 47.225467 -19.350752 -29.852205 -5.204301 0.106656 17.028569 54.465639 0.000000 0.000000 0.000000 7.125000 0.000000 0.000000 76.945311 71.687186 -57.520045
8.842428 15.506317 22.771283 -179.321913 7.517874 177.829658 0.000000 0.000000 0.000000 -26.383118 -19.251785 5.073727 1.299509 7.222124 20.375272 0.711411 14.866410 -27.367323 2.510446 -9.856812 -28.514385 0.000000 0.000000 0.000000 26.994037 15.776198 6.990239 -0.735793 -5.480076 15.283132 0.893048 -20.581353 -20.958802 -0.189921 2.806476 -7.740367 1.862598 1.100878 6.588393 0.280201 1.720802 -3.498747 -0.974247 0.779778 -7.322639 -5.409925 -1.088469 -6.698218 4.653682 -1.233366 10.722609 2.251079 -0.493277 4.366389 0.000000 0.000000 0.000000 3.120743 12.644418 -37.962804 18.894580 -29.287401 4.979140 2.718590 9.560533 37.915650 0.000000 0.000000 0.000000 -7.125000 0.000000 0.000000 -16.513231 -6.600694 -19.069063 0.000000 0.000000 0.000000 -4.431288 10.951292 47.424900 -19.429642 -29.949006 -5.243621 -0.186413 17.057143 54.402327 0.000000 0.000000 0.000000 7.125000 0.000000 0.000000 76.629333 71.775323 -57.323194
